<svg width="1920" height="302" viewBox="0 0 1440 302" fill="none" xmlns="http://www.w3.org/2000/svg">
<path d="M0.703003 238L60.703 232.7C120.703 227 240.703 217 360.703 195.3C480.703 174 600.703 142 720.703 104.7C840.703 67 960.703 25 1080.7 8.69995C1200.7 -7.00005 1320.7 2.99995 1380.7 8.69995L1440.7 14V302H1380.7C1320.7 302 1200.7 302 1080.7 302C960.703 302 840.703 302 720.703 302C600.703 302 480.703 302 360.703 302C240.703 302 120.703 302 60.703 302H0.703003V238Z" fill="#173F8A" fill-opacity="0.99"/>
</svg>
