<svg width="1920" height="199" viewBox="0 0 1440 199" fill="none" xmlns="http://www.w3.org/2000/svg">
<path d="M0.703003 71L60.703 92.3C120.703 114 240.703 156 360.703 151C480.703 146 600.703 92 720.703 55C840.703 18 960.703 -4.00005 1080.7 1.69995C1200.7 6.99995 1320.7 39 1380.7 55L1440.7 71V199H1380.7C1320.7 199 1200.7 199 1080.7 199C960.703 199 840.703 199 720.703 199C600.703 199 480.703 199 360.703 199C240.703 199 120.703 199 60.703 199H0.703003V71Z" fill="#FEC60D" fill-opacity="0.99"/>
</svg>
