<svg width="1920" height="299" viewBox="0 0 1440 299" fill="none" xmlns="http://www.w3.org/2000/svg">
<path d="M0.703003 42.9999L48.703 32.2999C96.703 21.9999 192.703 -8.76777e-05 288.703 0.299912C384.703 -8.76777e-05 480.703 21.9999 576.703 69.6999C672.703 118 768.703 192 864.703 229.7C960.703 267 1056.7 267 1152.7 256.3C1248.7 246 1344.7 224 1392.7 213.7L1440.7 203V299H1392.7C1344.7 299 1248.7 299 1152.7 299C1056.7 299 960.703 299 864.703 299C768.703 299 672.703 299 576.703 299C480.703 299 384.703 299 288.703 299C192.703 299 96.703 299 48.703 299H0.703003V42.9999Z" fill="#0176DE"/>
</svg>
